

    <svg data-v-e90411aa="" width="128" height="38" viewBox="0 0 190 56" fill="#000" xmlns="http://www.w3.org/2000/svg" class="ui-icon ">

        <path d="M182.53 56H7.52966C3.67966 56 0.529663 52.85 0.529663 49V7C0.529663 3.15 3.67966 0 7.52966 0H182.53C186.38 0 189.53 3.15 189.53 7V49C189.53 52.85 186.38 56 182.53 56Z" fill="black"></path>
        <path d="M182.53 1.12C185.778 1.12 188.41 3.752 188.41 7V49C188.41 52.248 185.778 54.88 182.53 54.88H7.52966C4.28166 54.88 1.64966 52.248 1.64966 49V7C1.64966 3.752 4.28166 1.12 7.52966 1.12H182.53ZM182.53 0H7.52966C3.67966 0 0.529663 3.15 0.529663 7V49C0.529663 52.85 3.67966 56 7.52966 56H182.53C186.38 56 189.53 52.85 189.53 49V7C189.53 3.15 186.38 0 182.53 0Z" fill="#A6A6A6"></path>
        <path d="M15.1457 10.556C14.7397 10.99 14.5017 11.662 14.5017 12.516V43.484C14.5017 44.352 14.7397 45.024 15.1457 45.444L15.2437 45.542L32.5897 28.21V28V27.79L15.2437 10.458L15.1457 10.556Z" fill="url(#paint0_linear)"></path>
        <path d="M38.3717 33.992L32.5897 28.21V28V27.79L38.3717 22.008L38.4977 22.078L45.3437 25.97C47.3037 27.076 47.3037 28.896 45.3437 30.016L38.4977 33.908L38.3717 33.992Z" fill="url(#paint1_linear)"></path>
        <path d="M38.4976 33.908L32.5896 28L15.1456 45.444C15.7896 46.13 16.8536 46.214 18.0576 45.528L38.4976 33.908Z" fill="url(#paint2_linear)"></path>
        <path d="M38.4977 22.092L18.0437 10.472C16.8397 9.78601 15.7757 9.87001 15.1317 10.556L32.5897 28L38.4977 22.092Z" fill="url(#paint3_linear)"></path>
        <path opacity="0.2" d="M38.3717 33.782L18.0438 45.332C16.9098 45.976 15.8878 45.934 15.2438 45.346L15.1458 45.444L15.2438 45.542C15.9018 46.13 16.9098 46.172 18.0438 45.528L38.4977 33.908L38.3717 33.782Z" fill="black"></path>
        <path opacity="0.12" d="M15.1457 45.248C14.7397 44.814 14.5017 44.142 14.5017 43.288V43.498C14.5017 44.366 14.7397 45.038 15.1457 45.458L15.2437 45.36L15.1457 45.248Z" fill="black"></path>
        <path opacity="0.12" d="M45.3437 29.82L38.3577 33.782L38.4837 33.908L45.3297 30.016C46.3097 29.456 46.7997 28.728 46.7997 28C46.7297 28.658 46.2397 29.316 45.3437 29.82Z" fill="black"></path>
        <path opacity="0.25" d="M18.0437 10.668L45.3437 26.18C46.2257 26.684 46.7297 27.328 46.8137 28C46.8137 27.272 46.3237 26.53 45.3437 25.984L18.0437 10.472C16.0837 9.366 14.4877 10.29 14.4877 12.53V12.74C14.4877 10.486 16.0977 9.56201 18.0437 10.668Z" fill="white"></path>
        <path d="M95.9256 30.45C92.6356 30.45 89.9476 32.956 89.9476 36.4C89.9476 39.83 92.6356 42.35 95.9256 42.35C99.2156 42.35 101.904 39.83 101.904 36.4C101.904 32.956 99.2156 30.45 95.9256 30.45ZM95.9256 40.012C94.1196 40.012 92.5656 38.528 92.5656 36.4C92.5656 34.258 94.1196 32.788 95.9256 32.788C97.7316 32.788 99.2856 34.258 99.2856 36.4C99.2856 38.528 97.7176 40.012 95.9256 40.012ZM82.8776 30.45C79.5876 30.45 76.8996 32.956 76.8996 36.4C76.8996 39.83 79.5876 42.35 82.8776 42.35C86.1676 42.35 88.8556 39.83 88.8556 36.4C88.8556 32.956 86.1676 30.45 82.8776 30.45ZM82.8776 40.012C81.0716 40.012 79.5176 38.528 79.5176 36.4C79.5176 34.258 81.0716 32.788 82.8776 32.788C84.6836 32.788 86.2376 34.258 86.2376 36.4C86.2376 38.528 84.6836 40.012 82.8776 40.012ZM67.3656 32.284V34.804H73.4136C73.2316 36.218 72.7556 37.268 72.0416 37.982C71.1596 38.864 69.7876 39.83 67.3796 39.83C63.6556 39.83 60.7436 36.834 60.7436 33.11C60.7436 29.386 63.6556 26.39 67.3796 26.39C69.3816 26.39 70.8516 27.174 71.9296 28.196L73.7076 26.418C72.1956 24.976 70.1936 23.87 67.3656 23.87C62.2696 23.87 57.9856 28.014 57.9856 33.124C57.9856 38.22 62.2696 42.378 67.3656 42.378C70.1236 42.378 72.1956 41.482 73.8196 39.788C75.4856 38.122 76.0036 35.77 76.0036 33.88C76.0036 33.292 75.9616 32.746 75.8636 32.298H67.3656V32.284ZM130.8 34.244C130.31 32.914 128.798 30.45 125.704 30.45C122.638 30.45 120.09 32.858 120.09 36.4C120.09 39.732 122.61 42.35 125.998 42.35C128.728 42.35 130.31 40.684 130.954 39.718L128.924 38.36C128.252 39.354 127.328 40.012 125.998 40.012C124.668 40.012 123.716 39.396 123.114 38.206L131.08 34.916L130.8 34.244ZM122.68 36.232C122.61 33.936 124.458 32.76 125.788 32.76C126.824 32.76 127.706 33.278 128 34.02L122.68 36.232ZM116.212 42H118.83V24.5H116.212V42ZM111.928 31.78H111.83C111.242 31.08 110.122 30.45 108.694 30.45C105.712 30.45 102.982 33.068 102.982 36.428C102.982 39.76 105.712 42.364 108.694 42.364C110.108 42.364 111.242 41.734 111.83 41.006H111.914V41.86C111.914 44.142 110.696 45.36 108.736 45.36C107.14 45.36 106.146 44.212 105.74 43.246L103.458 44.198C104.116 45.78 105.852 47.712 108.736 47.712C111.802 47.712 114.392 45.906 114.392 41.51V30.814H111.914V31.78H111.928ZM108.918 40.012C107.112 40.012 105.6 38.5 105.6 36.428C105.6 34.328 107.112 32.802 108.918 32.802C110.696 32.802 112.096 34.342 112.096 36.428C112.11 38.5 110.71 40.012 108.918 40.012ZM143.064 24.5H136.806V42H139.424V35.364H143.078C145.976 35.364 148.818 33.264 148.818 29.932C148.818 26.6 145.948 24.5 143.064 24.5ZM143.12 32.928H139.41V26.922H143.12C145.08 26.922 146.186 28.546 146.186 29.918C146.186 31.29 145.08 32.928 143.12 32.928ZM159.276 30.422C157.386 30.422 155.426 31.262 154.614 33.096L156.938 34.062C157.428 33.096 158.352 32.774 159.318 32.774C160.662 32.774 162.048 33.586 162.062 35.028V35.21C161.586 34.944 160.578 34.538 159.332 34.538C156.826 34.538 154.292 35.91 154.292 38.472C154.292 40.81 156.336 42.322 158.632 42.322C160.382 42.322 161.362 41.538 161.964 40.614H162.048V41.972H164.568V35.266C164.582 32.158 162.258 30.422 159.276 30.422ZM158.954 40.012C158.1 40.012 156.91 39.578 156.91 38.528C156.91 37.184 158.394 36.666 159.682 36.666C160.83 36.666 161.376 36.918 162.062 37.254C161.866 38.864 160.466 40.012 158.954 40.012ZM173.766 30.8L170.77 38.388H170.686L167.578 30.8H164.764L169.426 41.412L166.766 47.306H169.496L176.678 30.8H173.766ZM150.246 42H152.864V24.5H150.246V42Z" fill="white"></path>
        <path d="M59.4836 19.978H58.4476V17.164H59.2736C60.0016 16.534 60.3516 15.47 60.3376 13.944V9.79999H65.9516V17.164H66.8896V19.978H65.8536V18.2H59.4836V19.978ZM61.4296 13.958C61.4436 15.288 61.1776 16.352 60.6316 17.178H64.8736V10.836H61.4296V13.958Z" fill="white" stroke="white" stroke-width="0.2" stroke-miterlimit="10"></path>
        <path d="M75.3036 17.108C74.4776 17.962 73.4556 18.382 72.2236 18.382C70.9916 18.382 69.9696 17.962 69.1436 17.108C68.3176 16.254 67.9116 15.218 67.9116 14C67.9116 12.782 68.3176 11.732 69.1436 10.892C69.9696 10.038 70.9916 9.61798 72.2236 9.61798C73.4416 9.61798 74.4636 10.038 75.3036 10.892C76.1296 11.746 76.5496 12.782 76.5496 14C76.5496 15.232 76.1296 16.268 75.3036 17.108ZM69.9416 16.408C70.5576 17.038 71.3276 17.346 72.2236 17.346C73.1196 17.346 73.8896 17.038 74.5056 16.408C75.1216 15.778 75.4436 14.98 75.4436 14C75.4436 13.02 75.1356 12.222 74.5056 11.592C73.8896 10.962 73.1196 10.654 72.2236 10.654C71.3276 10.654 70.5576 10.962 69.9416 11.592C69.3256 12.222 69.0036 13.02 69.0036 14C69.0036 14.98 69.3256 15.778 69.9416 16.408Z" fill="white" stroke="white" stroke-width="0.2" stroke-miterlimit="10"></path>
        <path d="M81.9816 18.382C80.7497 18.382 79.7136 17.962 78.8736 17.122C78.0336 16.282 77.6136 15.246 77.6136 13.986C77.6136 12.726 78.0336 11.69 78.8736 10.85C79.7136 10.01 80.7497 9.59 81.9816 9.59C83.2416 9.59 84.2776 10.052 85.0616 10.962L84.3056 11.69C83.7316 10.976 82.9616 10.626 81.9676 10.626C81.0576 10.626 80.2737 10.934 79.6437 11.55C79.0137 12.166 78.7056 12.978 78.7056 13.972C78.7056 14.966 79.0137 15.778 79.6437 16.394C80.2737 17.01 81.0436 17.318 81.9676 17.318C82.9756 17.318 83.8297 16.912 84.5437 16.1L85.2997 16.856C84.9217 17.318 84.4316 17.682 83.8576 17.948C83.2836 18.256 82.6536 18.382 81.9816 18.382Z" fill="white" stroke="white" stroke-width="0.2" stroke-miterlimit="10"></path>
        <path d="M89.6816 18.2H88.6036V10.836H86.2516V9.79999H92.0196V10.836H89.6676V18.2H89.6816Z" fill="white" stroke="white" stroke-width="0.2" stroke-miterlimit="10"></path>
        <path d="M99.4397 9.79999L96.2617 16.884C95.8277 17.878 95.1697 18.382 94.3017 18.382C94.0497 18.382 93.7697 18.326 93.4617 18.2L93.7417 17.206C93.9237 17.304 94.1057 17.36 94.3017 17.36C94.5537 17.36 94.7497 17.318 94.8897 17.22C95.0297 17.122 95.1557 16.94 95.2677 16.688L95.5757 16.016L92.7477 9.79999H94.0217L96.0937 14.616H96.1357L98.1657 9.79999H99.4397Z" fill="white" stroke="white" stroke-width="0.2" stroke-miterlimit="10"></path>
        <path d="M100.658 18.2V9.79999H106.734V18.2H105.656V10.836H101.736V18.2H100.658Z" fill="white" stroke="white" stroke-width="0.2" stroke-miterlimit="10"></path>
        <path d="M108.652 18.2V9.79999H109.73V13.398H113.93V9.79999H115.008V18.2H113.93V14.406H109.73V18.2H108.652Z" fill="white" stroke="white" stroke-width="0.2" stroke-miterlimit="10"></path>
        <path d="M123.814 17.108C122.988 17.962 121.966 18.382 120.734 18.382C119.502 18.382 118.48 17.962 117.654 17.108C116.828 16.254 116.422 15.218 116.422 14C116.422 12.782 116.828 11.732 117.654 10.892C118.48 10.038 119.502 9.61798 120.734 9.61798C121.952 9.61798 122.974 10.038 123.814 10.892C124.64 11.746 125.06 12.782 125.06 14C125.046 15.232 124.64 16.268 123.814 17.108ZM118.452 16.408C119.068 17.038 119.838 17.346 120.734 17.346C121.63 17.346 122.4 17.038 123.016 16.408C123.632 15.778 123.954 14.98 123.954 14C123.954 13.02 123.646 12.222 123.016 11.592C122.4 10.962 121.63 10.654 120.734 10.654C119.838 10.654 119.068 10.962 118.452 11.592C117.836 12.222 117.514 13.02 117.514 14C117.514 14.98 117.822 15.778 118.452 16.408Z" fill="white" stroke="white" stroke-width="0.2" stroke-miterlimit="10"></path>
        <path d="M129.456 18.2V9.79999H132.494C133.152 9.79999 133.726 10.024 134.202 10.444C134.678 10.878 134.93 11.424 134.93 12.082C134.93 12.488 134.832 12.838 134.622 13.132C134.412 13.44 134.146 13.664 133.796 13.818V13.86C134.216 14 134.552 14.238 134.818 14.588C135.084 14.938 135.224 15.33 135.224 15.792C135.224 16.478 134.972 17.052 134.468 17.5C133.964 17.948 133.362 18.186 132.676 18.186H129.456V18.2ZM130.534 13.398H132.494C132.9 13.398 133.222 13.258 133.474 12.992C133.726 12.726 133.838 12.432 133.838 12.11C133.838 11.788 133.726 11.494 133.474 11.228C133.236 10.962 132.928 10.822 132.536 10.822H130.534V13.398ZM130.534 17.164H132.704C133.124 17.164 133.46 17.024 133.712 16.73C133.964 16.436 134.104 16.128 134.104 15.778C134.104 15.428 133.978 15.12 133.698 14.84C133.432 14.56 133.082 14.406 132.648 14.406H130.52V17.164H130.534Z" fill="white" stroke="white" stroke-width="0.2" stroke-miterlimit="10"></path>
        <defs>
        <linearGradient id="paint0_linear" x1="31.0493" y1="12.1936" x2="7.55393" y2="35.6889" gradientUnits="userSpaceOnUse">
        <stop stop-color="#00A0FF"></stop>
        <stop offset="0.00657445" stop-color="#00A1FF"></stop>
        <stop offset="0.2601" stop-color="#00BEFF"></stop>
        <stop offset="0.5122" stop-color="#00D2FF"></stop>
        <stop offset="0.7604" stop-color="#00DFFF"></stop>
        <stop offset="1" stop-color="#00E3FF"></stop>
        </linearGradient>
        <linearGradient id="paint1_linear" x1="47.8979" y1="28.002" x2="14.0222" y2="28.002" gradientUnits="userSpaceOnUse">
        <stop stop-color="#FFE000"></stop>
        <stop offset="0.4087" stop-color="#FFBD00"></stop>
        <stop offset="0.7754" stop-color="#FFA500"></stop>
        <stop offset="1" stop-color="#FF9C00"></stop>
        </linearGradient>
        <linearGradient id="paint2_linear" x1="35.2874" y1="31.2145" x2="3.4258" y2="63.0762" gradientUnits="userSpaceOnUse">
        <stop stop-color="#FF3A44"></stop>
        <stop offset="1" stop-color="#C31162"></stop>
        </linearGradient>
        <linearGradient id="paint3_linear" x1="10.7459" y1="0.246693" x2="24.9736" y2="14.4742" gradientUnits="userSpaceOnUse">
        <stop stop-color="#32A071"></stop>
        <stop offset="0.0685" stop-color="#2DA771"></stop>
        <stop offset="0.4762" stop-color="#15CF74"></stop>
        <stop offset="0.8009" stop-color="#06E775"></stop>
        <stop offset="1" stop-color="#00F076"></stop>
        </linearGradient>
        <clipPath id="clip0">
        <rect width="189" height="56" fill="white" transform="translate(0.529663)"></rect>
        </clipPath>
        </defs>
        </svg>
