<svg width="24" height="24" viewBox="0 0 24 24" fill="#000" xmlns="http://www.w3.org/2000/svg" class="ui-icon  geo-icon">
    <path fillRule="evenodd" clipRule="evenodd" d="M5.5 10C5.5 6.41015 8.41015 3.5 12 3.5C15.5899 3.5 18.5 6.41015 18.5 10C18.5 12.9108 16.9441 15.5528 15.2457 17.5127C14.4039 18.4842 13.5474 19.2641 12.877 19.7972C12.5412 20.0642 12.2591 20.2638 12.0551 20.3924C12.0356 20.4046 12.0173 20.416 12 20.4265C11.9827 20.416 11.9644 20.4046 11.9449 20.3924C11.741 20.2638 11.4588 20.0642 11.123 19.7972C10.4526 19.2641 9.59614 18.4842 8.7543 17.5127C7.05595 15.5528 5.5 12.9108 5.5 10ZM12 2C7.58172 2 4 5.58172 4 10C4 13.433 5.81905 16.4159 7.6207 18.4951C8.52886 19.5431 9.45369 20.3863 10.1895 20.9713C10.5568 21.2634 10.884 21.4967 11.1449 21.6612C11.2741 21.7427 11.3974 21.8138 11.5076 21.8675C11.5622 21.8942 11.6247 21.922 11.6903 21.9446C11.7408 21.9621 11.8575 22 12 22C12.1425 22 12.2592 21.9621 12.3097 21.9446C12.3753 21.922 12.4378 21.8942 12.4924 21.8675C12.6026 21.8138 12.7259 21.7427 12.8551 21.6612C13.1159 21.4967 13.4432 21.2634 13.8105 20.9713C14.5463 20.3863 15.4711 19.5431 16.3793 18.4951C18.1809 16.4159 20 13.433 20 10C20 5.58172 16.4183 2 12 2ZM10.5 10C10.5 9.17157 11.1716 8.5 12 8.5C12.8284 8.5 13.5 9.17157 13.5 10C13.5 10.8284 12.8284 11.5 12 11.5C11.1716 11.5 10.5 10.8284 10.5 10ZM12 7C10.3431 7 9 8.34315 9 10C9 11.6569 10.3431 13 12 13C13.6569 13 15 11.6569 15 10C15 8.34315 13.6569 7 12 7Z" fill="#141415"></path>
    </svg>